<svg width="100" height="100" viewBox="0 0 122 122" fill="none" xmlns="http://www.w3.org/2000/svg">
<path d="M84.0664 40.8219L93.1353 31.7533L89.5406 28.1586L80.414 37.2852C75.6166 33.3507 69.6083 30.8418 63.0422 30.4077V17.5964H57.9589V30.4888C51.4319 31.1344 45.5006 33.8354 40.8217 37.9336L31.753 28.8649L28.1583 32.4596L37.285 41.5862C33.3505 46.3836 30.8413 52.3916 30.4072 58.958H17.5962V64.0413H30.4888C31.1344 70.5683 33.8354 76.4993 37.9336 81.1783L28.8647 90.2472L32.4593 93.8419L41.5862 84.715C46.3836 88.6495 52.3916 91.1584 58.9577 91.5922V104.404H64.0411V91.5112C70.5681 90.8656 76.4993 88.1645 81.178 84.0666L90.2472 93.1355L93.8419 89.5411L84.715 80.414C88.6495 75.6166 91.1586 69.6086 91.5927 63.0422L104.404 63.0424V57.9591L91.5114 57.9589C90.8656 51.4319 88.1645 45.5009 84.0664 40.8219V40.8219ZM61 86.5783C46.896 86.5783 35.4214 75.1039 35.4214 61C35.4214 46.896 46.896 35.4217 61 35.4217C75.1039 35.4217 86.5786 46.896 86.5786 61C86.5786 75.1039 75.1039 86.5783 61 86.5783Z" fill="#A8A8A8"/>
<path d="M122 61C122 52.6458 118.038 44.9794 111.315 40.1566C112.657 31.9925 110.039 23.7714 104.133 17.8664C99.2874 13.0207 92.843 10.352 85.9876 10.352C84.6001 10.352 83.2128 10.4643 81.8447 10.6867C77.0221 3.96271 69.3549 0 61.0002 0C52.6457 0 44.9786 3.96297 40.1552 10.6864C38.7868 10.464 37.3996 10.3517 36.0121 10.3517C29.1569 10.3517 22.713 13.0204 17.8666 17.8664C11.9618 23.7714 9.34286 31.9927 10.6849 40.1566C3.96241 44.9794 0.000457764 52.6458 0.000457764 61C0.000457764 69.3542 3.96241 77.0206 10.6851 81.8434C9.34312 90.0075 11.9618 98.2286 17.8668 104.134C22.7153 108.982 29.1612 111.652 36.0171 111.652C37.3978 111.652 38.7837 111.538 40.1557 111.314C44.9791 118.038 52.6457 122 61.0002 122C69.3549 122 77.0216 118.038 81.8444 111.314C83.2167 111.539 84.6029 111.652 85.983 111.652C92.8394 111.652 99.2851 108.982 104.134 104.134C110.038 98.2286 112.657 90.0073 111.315 81.8434C118.038 77.0206 122 69.3542 122 61V61ZM107.153 78.5128L105.6 79.4754L106.017 81.2548C107.662 88.2556 105.614 95.465 100.539 100.539C96.6509 104.427 91.4814 106.569 85.983 106.569C84.4031 106.569 82.8123 106.383 81.2547 106.017L79.4756 105.6L78.5133 107.154C74.7265 113.267 68.1796 116.917 61.0002 116.917C53.821 116.917 47.2739 113.267 43.4868 107.153L42.5243 105.599L40.7452 106.017C39.1881 106.383 37.5975 106.569 36.0171 106.569C30.5188 106.569 25.3495 104.427 21.4613 100.539C16.3868 95.465 14.339 88.2556 15.983 81.2548L16.4008 79.4754L14.8471 78.5128C8.73362 74.7263 5.08379 68.1792 5.08379 61C5.08379 53.8208 8.73362 47.2737 14.8471 43.4872L16.4008 42.5246L15.983 40.7452C14.3388 33.7444 16.3868 26.535 21.4613 21.4608C25.3472 17.5749 30.5147 15.435 36.0121 15.435C37.6052 15.435 39.1973 15.6196 40.7449 15.9828L42.5241 16.4009L43.4866 14.8471C47.2739 8.73317 53.821 5.08333 61.0002 5.08333C68.1796 5.08333 74.7265 8.73317 78.5131 14.8466L79.4753 16.4006L81.2547 15.9828C82.8024 15.6193 84.3947 15.435 85.9876 15.435C91.4852 15.435 96.6529 17.5749 100.539 21.4608C105.613 26.535 107.661 33.7444 106.017 40.7452L105.599 42.5246L107.153 43.4872C113.267 47.2737 116.916 53.8208 116.916 61C116.916 68.1792 113.267 74.7263 107.153 78.5128Z" fill="#A8A8A8"/>
</svg>
