<svg width="100" height="100" viewBox="0 0 122 122" fill="none" xmlns="http://www.w3.org/2000/svg">
<path d="M0 44.1756C0.399456 42.0923 0.722062 39.9907 1.2133 37.9296C2.48119 32.611 5.21085 28.0318 8.68756 23.8971C13.225 18.5013 19.1329 15.0765 25.7072 12.8619C27.9755 12.0978 30.5124 11.9932 32.9409 11.8702C38.0575 11.6109 43.1548 11.7923 48.0317 13.6579C52.0805 15.2068 56.209 16.6213 59.1741 20.0796C63.7688 14.6488 69.0698 10.2175 75.4746 7.46669C78.7406 6.06385 82.4359 5.59867 85.9773 4.91734C89.668 4.20723 93.3396 4.60804 96.9103 5.78387C101.354 7.24728 105.329 9.24266 108.637 12.8619C112.81 17.427 116.396 22.2933 118.913 27.8957C121.451 33.5424 122.348 39.4943 121.881 45.7189C121.022 57.1798 116.203 67.1611 110.643 76.8957C107.024 83.23 102.402 88.8354 97.7024 94.3645C92.3808 100.625 86.9372 106.782 81.5319 112.971C80.5109 114.14 79.5594 115.435 78.3317 116.342C76.358 117.801 74.037 117.656 71.8896 116.75C65.9412 114.239 59.9947 111.713 54.1378 108.999C44.7133 104.63 35.7637 99.3867 27.5234 93.0733C19.8829 87.2197 12.4695 81.0451 7.41886 72.6044C4.30467 67.3992 1.76782 61.9535 0.673454 55.9361C0.366326 54.2473 0.219959 52.5295 0 50.8249C0 48.6085 0 46.3921 0 44.1756H0ZM37.4997 76.3295C37.7164 76.3429 37.9334 76.3561 38.1501 76.3695C38.1501 76.9378 38.2267 77.5181 38.1381 78.0724C37.3349 83.1007 36.4901 88.1229 35.7009 93.1534C35.633 93.5868 35.7216 94.2861 36.0056 94.493C37.5516 95.6186 39.1817 96.6285 40.8428 97.7177C41.8698 92.1644 42.8561 86.8322 43.8424 81.4999C44.064 81.5282 44.2856 81.5567 44.5072 81.5849C45.5092 87.4472 42.7972 92.9598 42.4466 98.8319C44.1031 99.6511 45.8234 100.502 47.7028 101.432C47.8478 96.5595 48.3146 91.9466 49.5774 87.4209C49.9287 88.5174 49.986 89.5952 49.9179 90.6652C49.7229 93.7215 49.6165 96.7939 49.2013 99.8222C48.93 101.802 49.7101 102.713 51.3883 103.437C58.7358 106.61 66.0705 109.815 73.3603 113.117C74.8718 113.802 75.7587 113.541 76.8001 112.344C80.1934 108.442 83.7777 104.704 87.117 100.758C91.779 95.2493 96.478 89.7538 100.819 83.9944C108.85 73.3392 115.147 61.8128 117.377 48.4187C118.358 42.5276 117.939 36.7451 115.882 31.162C113.841 25.6247 110.567 20.8459 106.68 16.3769C103.787 13.0512 100.515 10.6995 96.3474 9.3043C92.3626 7.97043 88.3694 7.98536 84.3547 8.62379C80.831 9.18427 77.3877 10.0196 74.247 11.9726C69.6694 14.819 65.3986 17.9848 61.7804 22.0024C60.2174 23.7382 59.6637 23.7643 57.7142 22.406C56.1574 21.3211 54.7124 20.0138 53.0315 19.1815C48.9224 17.1471 44.6956 15.263 40.0127 15.1327C36.2728 15.0287 32.3768 14.5947 28.8081 15.4211C19.0251 17.6866 11.7757 23.5381 7.00609 32.4589C4.42063 37.2945 3.69667 42.4649 3.83108 47.8142C3.89924 50.5235 4.21343 53.2265 4.41656 55.9323C6.31635 50.8078 7.42782 45.5416 9.77106 40.6577C9.9511 41.4854 9.95164 42.278 9.75422 43.018C8.4695 47.8337 7.13318 52.6354 5.83733 57.4481C5.64425 58.1656 5.29558 59.0085 5.50087 59.6355C6.24764 61.9152 7.19917 64.1275 8.07357 66.3654C8.07249 60.9354 11.789 49.0145 13.981 48.2335C14.0002 48.382 14.0635 48.5341 14.0301 48.6609C12.5097 54.454 10.9887 60.2468 9.43623 66.0311C9.33087 66.4241 8.98138 66.7513 8.6346 67.2773C9.40826 68.6304 10.3101 70.2074 11.2709 71.8875C12.7867 65.529 14.5173 59.4945 16.7068 53.6064C16.964 53.6703 17.2211 53.7343 17.4783 53.7982C17.2317 55.1432 17.0764 56.5126 16.722 57.8286C15.4639 62.4998 14.1192 67.1478 12.8584 71.8182C12.674 72.5017 12.4687 73.4503 12.7867 73.9483C13.7624 75.476 14.9879 76.8444 16.1583 78.3276C16.6528 75.9746 17.0115 73.8027 17.5771 71.686C18.4116 68.5634 19.3634 65.4706 20.334 62.3869C20.561 61.6651 21.0634 61.0299 21.4389 60.3548C21.6203 60.429 21.802 60.5028 21.9834 60.577C21.9331 61.031 21.9361 61.4986 21.8245 61.9372C20.7329 66.2321 19.6133 70.5202 18.5189 74.8143C17.2833 79.6618 17.3572 79.9369 20.6395 82.7885C21.2266 83.2984 21.871 83.7422 22.5246 84.2437C23.5465 75.8008 25.9467 66.6647 27.5337 65.768C27.4509 66.7198 27.4642 67.5665 27.2928 68.3741C26.1621 73.7036 24.9889 79.0244 23.8405 84.3502C23.7727 84.6643 23.6529 85.1564 23.8058 85.2995C25.0894 86.4976 26.4312 87.6335 27.7653 88.7971C28.7125 82.9992 29.8207 77.4861 31.4435 72.0816C32.3815 74.4311 31.6048 76.6747 31.235 78.9142C30.7141 82.0664 30.0059 85.1871 29.456 88.3352C29.3466 88.9614 29.343 89.9415 29.7151 90.2562C31.0256 91.3644 32.5208 92.2537 34.0716 93.312C35.1386 87.4787 35.5858 81.7411 37.4997 76.3295V76.3295Z" fill="#A8A8A8"/>
<path d="M87.7703 49.0243C84.6646 49.1709 81.8317 47.0365 81.1184 43.6752C80.5552 41.0224 81.293 38.1714 85.1895 36.334C89.6959 34.2091 95.6003 36.9494 96.4704 41.6174C96.8074 43.4262 96.0367 44.9179 94.8454 46.0483C92.9763 47.8221 90.7781 49.103 87.7703 49.0243V49.0243Z" fill="#A8A8A8"/>
<path d="M37.7183 45.3852C40.4988 45.5106 42.7687 46.5227 44.4974 48.8344C46.82 51.9402 45.7609 57.1619 40.8124 58.294C37.632 59.0218 34.6394 58.2308 32.416 55.6247C30.7692 53.6945 30.3299 51.4604 31.2735 49.0636C32.2821 46.5023 34.5403 45.7936 36.9661 45.3906C37.2105 45.3499 37.4674 45.3852 37.7183 45.3852V45.3852Z" fill="#A8A8A8"/>
<path d="M63.324 54.8518C58.3103 54.7562 54.1639 51.1632 54.0925 46.7983C54.0737 45.6548 54.2027 44.6068 55.573 44.4135C56.7833 44.2427 57.3514 45.0633 57.7183 46.074C58.3632 47.8503 59.2344 49.428 61.0999 50.231C63.1469 51.1122 64.9128 50.6408 66.6288 49.3471C68.3263 48.0675 68.364 46.3334 67.9086 44.6028C67.5309 43.1668 68.014 42.3209 69.2036 41.8313C70.3586 41.3561 71.6577 42.159 72.1462 43.503C74.1011 48.8833 70.5975 52.9061 65.9645 54.4121C65.1254 54.6853 64.2062 54.7116 63.324 54.8518V54.8518Z" fill="#A8A8A8"/>
<path d="M54.628 104.466C54.3917 103.906 53.9119 103.325 53.9583 102.79C54.2907 98.9603 54.7263 95.1396 55.1448 91.3177C55.1708 91.079 55.3302 90.8547 55.4274 90.6239C55.6631 90.7225 55.8989 90.8211 56.1346 90.9194C55.8503 95.3647 55.5662 99.8098 55.2819 104.255C55.0638 104.326 54.846 104.396 54.628 104.466V104.466Z" fill="#A8A8A8"/>
<path d="M60.2999 105.212C58.9767 103.652 58.9297 101.133 60.0143 94.9359C60.8672 95.7386 61.1124 103.204 60.2999 105.212Z" fill="#A8A8A8"/>
<path d="M65.4071 98.2323C65.2827 100.023 65.1583 101.814 65.0263 103.711C63.7256 102.814 63.7764 100.478 64.9742 98.1777C65.1184 98.1959 65.2626 98.2141 65.4071 98.2323V98.2323Z" fill="#A8A8A8"/>
<path d="M69.9072 103.312C68.7724 101.874 68.8873 100.667 70.1924 99.3025C70.0905 100.735 70.0129 101.83 69.9072 103.312Z" fill="#A8A8A8"/>
</svg>
