<svg width="75" height="93" viewBox="0 0 75 93" fill="none" xmlns="http://www.w3.org/2000/svg">
<g clip-path="url(#clip0_115_138)">
<path d="M20.862 55.1658C20.9566 58.7986 21.8772 63.3169 23.3482 66.9725C23.4515 66.9043 23.5719 66.8514 23.701 66.8135C24.7161 66.5183 25.6796 66.3897 26.669 66.3973C27.6325 66.4048 28.5874 66.5411 29.6198 66.7681C30.308 66.9195 30.7295 67.5325 30.5575 68.138C30.3854 68.7434 29.6886 69.1143 29.0003 68.9629C28.1487 68.7737 27.383 68.6602 26.6604 68.6526C25.9635 68.6451 25.2667 68.7434 24.5182 68.9629C24.4408 68.9856 24.3634 69.0008 24.286 69.0083C25.3527 71.0972 26.5829 72.6033 27.8648 72.9742C28.5444 73.1709 28.9143 73.8067 28.6906 74.4046C28.467 75.0025 27.7443 75.3279 27.0647 75.1311C24.5785 74.4197 22.5052 71.5664 21.0169 67.9412C19.6576 64.6338 18.7285 60.6226 18.4102 57.0882L16.3455 58.7078C15.4766 59.389 14.8658 59.8279 14.3582 60.1988C12.6635 61.4248 12.0871 61.8335 11.2354 64.5733C11.0977 65.0122 10.9257 65.5647 10.6934 66.1778C10.4525 66.8135 10.1686 67.4871 9.8245 68.1001C9.37715 68.91 8.80936 69.6744 8.10392 70.2495C7.90606 70.4085 7.69099 70.5599 7.47591 70.6809C9.18789 73.2693 11.2698 75.6685 13.6442 77.7952C16.2681 80.1414 19.2361 82.1546 22.4622 83.7212C27.2712 86.0599 29.4133 86.2037 33.1814 86.4534C34.3169 86.5291 35.5816 86.6123 37.1473 86.7713C40.7777 87.1346 44.2705 87.6871 47.6342 88.2925C47.9181 84.5613 49.6473 82.2151 51.4797 79.7251C52.9766 77.6817 54.5595 75.5323 55.3166 72.3687C55.2736 72.2173 55.265 72.0508 55.2994 71.8919C54.4219 68.7964 53.2605 67.1087 52.2712 65.6556C51.7894 64.9517 51.3421 64.3008 50.9721 63.597C50.6452 63.9829 50.3097 64.3311 49.9484 64.6414C48.9246 65.5269 47.7547 66.087 46.4212 66.2762C46.3094 66.2913 46.1975 66.3064 46.0857 66.314C45.9825 66.3216 45.8706 66.3291 45.7416 66.3367C45.0361 66.367 44.4339 65.8826 44.3995 65.262C44.3651 64.6414 44.9157 64.1116 45.6211 64.0813C45.6727 64.0813 45.7416 64.0738 45.8104 64.0662H45.819C45.8792 64.0586 45.948 64.0511 46.0083 64.0435H46.0169C46.7911 63.93 47.4966 63.5818 48.1418 63.0293C48.8214 62.4466 49.4322 61.6292 49.9828 60.615C49.5785 57.8829 50.0946 53.7884 52.3658 46.1292C51.7722 46.0005 51.1872 45.8113 50.6022 45.5843C48.6063 44.782 46.7051 43.3894 44.9157 41.4595C44.8383 41.4671 44.7522 41.4671 44.6748 41.4746C42.6015 41.5957 40.468 41.4444 39.0485 41.3384C36.6569 41.1643 34.5664 40.7481 32.7512 40.0896C32.8028 40.907 32.6996 41.8152 32.4501 42.8445C32.2264 43.7452 31.8565 44.6382 31.3317 45.5313C30.8242 46.4016 30.1703 47.2644 29.3789 48.1197C29.0606 48.4602 28.7251 48.8008 28.3637 49.1414C28.8885 50.3902 29.8004 51.7071 30.85 52.8196C31.9167 53.9473 33.0953 54.8404 34.0933 55.1885C34.7643 55.1582 35.3923 55.2264 35.9773 55.3853C36.6655 55.5669 37.2849 55.8621 37.8527 56.2708C38.4033 56.6643 38.4893 57.3758 38.042 57.8601C37.5946 58.3445 36.786 58.4202 36.2354 58.0266C35.9343 57.8072 35.5988 57.6482 35.246 57.5574C35.0826 57.512 34.9019 57.4817 34.7213 57.4666C34.6697 57.5877 34.6438 57.7012 34.6266 57.8147C34.5922 58.0721 34.6438 58.337 34.7299 58.6094C34.9191 59.2149 34.5148 59.8355 33.8352 60.002C33.1469 60.1685 32.4415 59.8128 32.2522 59.2149C32.0888 58.6927 32.0028 58.1553 32.0716 57.5801C32.0974 57.3531 32.149 57.1336 32.2264 56.899C31.0822 56.3086 29.9123 55.3702 28.8799 54.2803C27.9078 53.2586 27.0389 52.0704 26.4023 50.8897C25.0946 51.972 23.6838 53.0391 22.3417 54.0533C21.8255 54.4317 21.318 54.8101 20.862 55.1658ZM19.2877 31.7947V14.3496C19.2877 14.3118 19.2877 14.2664 19.2963 14.2286C19.3565 11.5342 19.0124 9.34696 18.3242 7.59867C17.6273 5.84281 16.5692 4.54862 15.2013 3.66312C15.0723 3.57987 14.9432 3.49662 14.8056 3.42094C14.6765 3.34525 14.5389 3.26957 14.3926 3.20145C13.3775 2.69437 12.3624 2.45219 11.2956 2.33866C10.1686 2.22514 8.97282 2.26298 7.69959 2.32352C6.99415 2.36137 6.33173 2.42948 5.80695 2.56571C5.48004 2.64896 5.24776 2.73222 5.18754 2.81547C5.13593 2.89115 5.12732 3.00468 5.14453 3.16361C5.17894 3.42094 5.30798 3.73881 5.50585 4.10966C6.58121 5.43412 7.48452 6.93265 8.20716 8.59769C8.9298 10.2703 9.48039 12.1321 9.85031 14.168C9.85891 14.2286 9.86752 14.2891 9.86752 14.3421V33.2478C12.001 31.8628 13.9109 31.2649 15.9153 31.2649C17.0251 31.2725 18.1263 31.4541 19.2877 31.7947ZM7.29525 35.2307C7.29525 35.2005 7.29525 35.1702 7.29525 35.1475V14.4178C6.95114 12.5938 6.45217 10.9212 5.79835 9.40751C5.14453 7.9014 4.34446 6.56181 3.38094 5.38871C3.32932 5.32816 3.28631 5.26762 3.24329 5.1995C2.88197 4.56376 2.65829 3.97343 2.58947 3.42094C2.50344 2.75492 2.63249 2.15702 2.99381 1.6348C3.42395 1.0142 4.1724 0.620643 5.08431 0.386024C5.81556 0.196815 6.67584 0.0984263 7.55334 0.0605845C8.94701 3.7674e-05 10.2719 -0.0453725 11.5795 0.0832896C12.956 0.21952 14.298 0.552528 15.6487 1.22611C15.8293 1.31693 16.01 1.41532 16.1906 1.52128C16.3713 1.61967 16.5434 1.73319 16.7154 1.83915C18.4962 2.99711 19.8555 4.64701 20.733 6.8494C21.5244 8.84745 21.9202 11.2996 21.8513 14.274C21.8513 14.2967 21.8513 14.3194 21.8513 14.3496V16.045C22.6772 13.8123 23.7698 11.784 25.1979 9.94486L24.1139 6.55424C23.116 4.85892 23.4687 3.35282 24.4236 2.28568C24.8796 1.7786 25.4904 1.37748 26.1528 1.12772C26.8238 0.870399 27.5551 0.756874 28.2605 0.809852C29.68 0.915809 30.979 1.64994 31.5468 3.19389L32.5275 4.87406C32.7168 5.1995 32.82 5.39628 32.9147 5.56278C33.0351 5.78226 33.0437 5.81254 33.8008 5.67631H33.8094L34.1449 5.61576C35.16 5.44169 35.5213 5.38114 35.5213 4.62431V3.86747H35.5299C35.5299 3.80692 35.5385 3.75394 35.5471 3.6934C35.8569 1.94511 37.1645 0.877967 38.7216 0.446571C39.384 0.257362 40.0809 0.189247 40.7519 0.234657C41.4401 0.280067 42.1112 0.439003 42.7048 0.703895C43.9694 1.27909 44.8727 2.31596 44.8813 3.78422C44.8813 3.81449 44.8813 3.84476 44.8813 3.86747V5.56278C48.6752 6.90238 51.3679 8.77933 52.882 11.2315C54.2068 13.3733 54.6026 15.9087 54.0176 18.8604C55.3682 18.9134 56.5984 19.0496 57.7082 19.2691C59.2567 19.5794 60.573 20.0486 61.6569 20.6768C62.1215 20.9493 62.5602 21.2671 62.956 21.6153C63.8593 22.4175 64.5217 23.409 64.7798 24.4534C65.0637 25.5735 64.8916 26.7315 64.0915 27.7986C63.8851 28.0711 63.6356 28.3435 63.3345 28.6009C62.2677 29.5242 60.6762 30.0918 58.5685 30.3113C57.9835 30.3719 57.3555 30.4097 56.6845 30.4173C57.8717 31.1892 58.9728 32.052 59.9019 33.0132C61.9408 35.1248 63.171 37.698 62.8011 40.8919C62.7495 41.3233 62.6549 41.732 62.5172 42.118C67.0595 46.6363 70.9997 54.5452 73.1762 62.7266C75.2925 70.6885 75.7571 78.9607 73.5117 84.6976L73.4945 84.7354C72.3847 87.6795 70.4663 90.0332 67.7134 91.4334C65.1755 92.7276 61.9838 93.1892 58.1383 92.5384C56.0564 92.1827 54.0004 91.7967 51.884 91.3955C47.118 90.4873 42.0853 89.5337 36.8462 89.0115C35.9257 88.9207 35.0912 88.8526 34.3169 88.7996C33.4652 90.5025 32.0716 91.7058 30.48 92.3794C29.2928 92.8789 27.9938 93.0757 26.7206 92.9622C25.4387 92.8487 24.1827 92.4173 23.1074 91.6604C22.2987 91.0928 21.5933 90.336 21.0513 89.3975C20.2942 90.563 19.2447 91.4485 18.0747 92.0313C16.9993 92.5686 15.8121 92.8411 14.6249 92.8562C13.4291 92.8638 12.2333 92.6065 11.158 92.0691C9.19649 91.0777 7.63077 89.1629 7.17481 86.2642C7.15761 86.181 7.1404 86.0977 7.1404 86.0144V82.094V74.4349V74.4273C6.32313 73.3904 5.55747 72.3157 4.86063 71.2107C4.04336 71.1048 3.31211 70.6961 2.6669 69.9695C2.09911 69.3262 1.60014 68.418 1.16999 67.1995C1.15279 67.1541 1.14419 67.1087 1.12698 67.0557C0.0172069 61.5005 -0.584995 54.1592 0.808673 47.4991C1.79801 42.7915 3.78527 38.4246 7.29525 35.2307ZM61.1149 44.1765C60.246 44.9561 59.033 45.5691 57.4157 46.0081C56.5898 46.2276 55.7639 46.3562 54.9553 46.3789C54.3531 48.377 53.8799 50.1177 53.51 51.6465L53.5186 51.6541C56.1769 57.4515 59.4718 58.617 62.2419 59.5933C64.8916 60.5318 67.137 61.3265 68.35 64.6868C68.565 65.2847 68.1865 65.9204 67.5069 66.1097C66.8273 66.2989 66.1046 65.9659 65.8895 65.368C65.0465 63.0218 63.3173 62.4087 61.2784 61.6897C58.5943 60.7361 55.4714 59.6387 52.7357 55.4383C51.9012 60.7361 53.0024 62.3482 54.4649 64.49C55.5489 66.0794 56.8135 67.9261 57.7856 71.3394C59.3341 72.013 60.6762 72.8682 61.829 73.9126C63.0764 75.0403 64.0915 76.3875 64.883 77.9617L67.6101 79.6116C68.1951 79.9673 68.3414 80.6712 67.937 81.1858C67.5327 81.7005 66.7326 81.8291 66.1476 81.4734L64.2722 80.3382L62.7495 82.6919C62.3968 83.2369 61.6139 83.4261 60.9945 83.1158C60.3751 82.8055 60.16 82.1167 60.5127 81.5718L62.4054 78.6429C61.7602 77.4168 60.9515 76.3648 59.9794 75.4869C59.2653 74.836 58.4566 74.2759 57.5533 73.8067C56.6414 76.8416 55.0929 78.9456 53.6132 80.9588C51.9271 83.252 50.3441 85.409 50.1635 88.7618C50.9205 88.9056 51.6776 89.0494 52.426 89.1932C54.5681 89.6018 56.6672 89.9954 58.6201 90.3284C61.8204 90.8733 64.4184 90.5176 66.4229 89.4883C68.5909 88.3833 70.1308 86.4685 71.0427 84.0391C71.0513 84.0164 71.0599 83.9937 71.0685 83.9786C73.1504 78.6656 72.6772 70.8475 70.6641 63.264C68.6683 55.7334 65.1583 48.4905 61.1149 44.1765ZM31.5382 88.6104C28.5874 88.3833 26.3765 88.0428 22.617 86.355C22.9353 88.0201 23.7182 89.1932 24.7247 89.897C25.4043 90.3738 26.1786 90.6387 26.9787 90.7144C27.7787 90.7825 28.6132 90.6538 29.3789 90.3284C30.2134 89.9878 30.9704 89.4051 31.5382 88.6104ZM19.6834 84.917C16.8273 83.3731 14.1776 81.5037 11.8032 79.377C11.0805 78.7337 10.3923 78.0601 9.72127 77.3714V82.094V85.9766C10.0568 88.0882 11.1149 89.4429 12.4398 90.1014C13.1194 90.4419 13.8593 90.6084 14.6077 90.6009C15.3648 90.5933 16.1218 90.4117 16.8187 90.0711C18.2295 89.3748 19.3651 87.9898 19.6834 85.9766V84.917ZM23.787 33.5808C24.2946 33.6717 24.7849 33.7776 25.2581 33.8836C25.7915 34.0122 26.3248 34.156 26.8496 34.3301C27.2195 34.4512 27.5723 34.5723 27.9078 34.701C29.852 29.948 32.648 26.1714 36.373 23.4922C35.8741 21.8423 36.0203 20.3438 36.7774 19.0723C37.586 17.7024 39.0829 16.6429 41.1992 15.9693C41.3197 15.9314 41.4487 15.8936 41.5864 15.8558C42.266 15.6665 42.9887 15.992 43.2037 16.5899C43.4188 17.1878 43.0489 17.8235 42.3692 18.0127C42.2746 18.043 42.1714 18.0733 42.0681 18.1036H42.0595C40.5798 18.5728 39.5647 19.2615 39.0571 20.1319C38.7302 20.6844 38.6012 21.3277 38.67 22.0542C42.2144 20.1092 46.4384 19.0269 51.3937 18.868C51.9873 16.272 51.7034 14.0999 50.6108 12.3213C49.3978 10.3611 47.1697 8.83231 43.978 7.68949L43.4016 7.61381C42.7564 7.53056 42.2918 7.04618 42.2918 6.49369V3.88261C42.2918 3.85233 42.2918 3.81449 42.3004 3.78422C42.2832 3.29227 41.9649 2.92899 41.5176 2.73222C41.2337 2.60355 40.9067 2.52787 40.5626 2.50516C40.2013 2.48246 39.84 2.5203 39.5045 2.61112C38.8421 2.80033 38.2743 3.2393 38.1022 3.95829V4.63944C38.1022 7.25809 37.1817 7.41703 34.6266 7.84843L34.2911 7.90897C31.5554 8.38578 31.4608 8.19657 30.5747 6.51639C30.4714 6.31962 30.3424 6.085 30.2392 5.90336L29.1982 4.12479C29.1638 4.06425 29.1294 3.99613 29.1122 3.93558C28.9229 3.36796 28.5014 3.11063 28.054 3.07279C27.7701 3.05009 27.469 3.10306 27.1851 3.20902C26.9012 3.32255 26.6432 3.48905 26.4453 3.70853C26.0582 4.13993 25.9463 4.79838 26.4453 5.59306C26.4969 5.67631 26.5399 5.76713 26.5657 5.85795L27.8476 9.85404C27.9594 10.2022 27.8734 10.5503 27.6497 10.8228C25.456 13.4793 24.0881 16.6429 23.245 20.3287C22.4191 23.9539 22.0922 28.1014 21.989 32.7786C22.574 33.0208 23.1676 33.2932 23.787 33.5808ZM30.1875 35.8438C30.6349 36.139 31.022 36.4644 31.3575 36.8201C31.9942 37.2439 32.6996 37.6072 33.4825 37.9175C35.074 38.5381 36.9924 38.9241 39.2378 39.0906C40.597 39.189 42.6273 39.3328 44.5028 39.2268C46.1889 39.1285 47.7374 38.8484 48.4343 38.1673C49.1999 37.4104 49.6903 36.2373 49.9828 34.7464C50.2925 33.1419 50.3527 31.2195 50.2581 29.0852C50.2495 29.002 50.2495 28.9112 50.2667 28.8204C50.3699 28.1997 51.0151 27.7683 51.7206 27.8592C54.3703 28.1922 56.5554 28.2679 58.2674 28.0938C59.7987 27.9349 60.8913 27.5791 61.5365 27.0191C61.6999 26.8753 61.8376 26.7315 61.9494 26.5801C62.3279 26.073 62.4054 25.513 62.2763 24.9756C62.1215 24.3626 61.6999 23.7495 61.1235 23.2349C60.8569 23.0003 60.5644 22.7808 60.2374 22.5916C59.4116 22.1148 58.3792 21.7515 57.1404 21.5017C55.9016 21.2596 54.4735 21.1309 52.8476 21.1158C52.6153 21.1914 52.3572 21.199 52.0991 21.146C52.0647 21.1385 52.0389 21.1309 52.0045 21.1233C46.5158 21.2141 42.0337 22.531 38.4721 24.9378C34.7901 27.4126 32.0544 31.0984 30.1875 35.8438ZM24.5871 36.0784C24.0967 35.9649 23.6063 35.8589 23.116 35.7757C22.9955 35.753 22.8751 35.7151 22.7546 35.6621C19.9759 34.3528 17.851 33.5354 15.924 33.5354C14.0657 33.5354 12.2161 34.315 9.85891 36.2071C6.28871 39.0679 4.31005 43.2986 3.33792 47.9153C2.01308 54.2273 2.58947 61.2508 3.65623 66.6016C3.99174 67.5174 4.33586 68.1683 4.70578 68.5845C4.92946 68.8418 5.12732 68.9705 5.29078 68.9781C5.68651 69.0008 6.03923 68.8418 6.36614 68.5769C6.80489 68.2212 7.18341 67.6915 7.51032 67.1011C7.81143 66.5486 8.06091 65.9886 8.25878 65.4663C8.46525 64.9214 8.6287 64.3916 8.75774 63.9754C9.83311 60.5242 10.5644 59.9944 12.7323 58.4353C13.3001 58.0266 13.9625 57.5498 14.6421 57.0125L18.2811 54.1517C19.0984 53.5083 19.8727 52.918 20.6814 52.3125C23.073 50.5037 25.6882 48.5284 27.3916 46.6892C28.0712 45.9551 28.6218 45.221 29.052 44.4869C29.4649 43.783 29.7574 43.0716 29.9381 42.3601C30.3596 40.6421 30.265 39.4463 29.6542 38.5835C29.6112 38.523 29.5681 38.4624 29.5165 38.4019C29.1122 38.1143 28.7251 37.804 28.3723 37.471C27.7443 37.1001 26.9443 36.7671 25.9807 36.4568C25.5248 36.3206 25.0688 36.1919 24.5871 36.0784ZM52.8648 30.9168C52.8648 32.4456 52.7529 33.8533 52.5121 35.1021C52.1507 37.0017 51.4625 38.5608 50.3441 39.6582C49.7161 40.2713 48.8472 40.6951 47.8407 40.9827C49.0881 42.1482 50.3613 43.0035 51.6518 43.5257C52.383 43.8208 53.1315 44.01 53.8885 44.0782C54.0003 44.0706 54.1122 44.0782 54.224 44.1009C55.0241 44.1387 55.8328 44.0555 56.6586 43.836C57.8975 43.503 58.775 43.0564 59.3427 42.5115C59.8675 42.012 60.1514 41.3914 60.2374 40.68C60.5299 38.19 59.5492 36.1541 57.9319 34.4815C56.5812 33.0813 54.7746 31.9082 52.8648 30.9168Z" fill="#A8A8A8"/>
</g>
<defs>
<clipPath id="clip0_115_138">
<rect width="75" height="93" fill="white"/>
</clipPath>
</defs>
</svg>
