<svg width="100" height="100" viewBox="0 0 100 100" fill="none" xmlns="http://www.w3.org/2000/svg">
<path d="M97.1771 49.3291C97.1804 49.3284 97.1818 49.3291 97.1835 49.3291C98.6655 49.3291 99.8665 48.1278 99.8665 46.646C99.8665 45.8914 99.5549 45.2093 99.0536 44.7219L78.5744 22.2433C81.3383 21.545 83.5612 19.4723 84.4674 16.7973H91.6154C96.2387 16.7973 100 13.036 100 8.41276C100 3.78951 96.2387 0.0281982 91.6154 0.0281982H77.8648C74.1796 0.0281982 71.0417 2.41847 69.9202 5.7297H62.7725C58.1493 5.7297 54.388 9.49102 54.388 14.1143C54.388 15.1781 54.5895 16.1953 54.9524 17.1327H27.7529C27.7308 17.1327 27.709 17.1357 27.6872 17.1361C27.6335 17.1374 27.5802 17.1401 27.5269 17.1444C27.491 17.1475 27.4547 17.1515 27.4192 17.1555C27.3649 17.1626 27.3112 17.1713 27.2572 17.181C27.2237 17.1877 27.1908 17.1941 27.1576 17.2015C27.1016 17.2142 27.0463 17.2293 26.9912 17.2454C26.9611 17.2545 26.9309 17.2632 26.9014 17.2732C26.8454 17.292 26.79 17.3135 26.7347 17.3363C26.7065 17.3477 26.6787 17.3588 26.6508 17.3712C26.5975 17.3953 26.5452 17.4221 26.4929 17.45C26.4644 17.4651 26.4359 17.4798 26.4077 17.4959C26.3604 17.5234 26.3144 17.5539 26.2682 17.5845C26.237 17.6053 26.2058 17.6254 26.1756 17.6475C26.1357 17.6764 26.0975 17.7082 26.0586 17.7394C26.0247 17.7669 25.9911 17.7941 25.9586 17.8229C25.9492 17.8316 25.9385 17.839 25.9291 17.8477C25.9026 17.8722 25.8798 17.8987 25.8543 17.9245C25.8318 17.9474 25.807 17.9678 25.7852 17.9916L0.911234 44.8222C0.186137 45.6043 -0.00670764 46.7423 0.419899 47.7196C0.846505 48.6972 1.81207 49.3294 2.87892 49.3294H5.64583V83.6458C2.29167 84.7673 0 87.9024 0 91.5873C0 96.2105 3.81699 99.9719 8.44057 99.9719H91.2801C95.9033 99.9719 99.6086 96.2105 99.6086 91.5873C99.6086 88.1563 97.5403 85.2013 94.5219 83.905V49.3291H97.1771ZM91.2801 94.6057H8.44057C6.77607 94.6057 5.42213 93.2518 5.42213 91.5873C5.42213 89.9228 6.77607 88.5688 8.44057 88.5688H91.2801C92.9446 88.5688 94.2985 89.9228 94.2985 91.5873C94.2985 93.2518 92.9442 94.6057 91.2801 94.6057ZM62.7725 11.0955H64.1141H72.1633C73.645 11.0955 74.8463 9.89415 74.8463 8.41243C74.8463 6.74792 76.2003 5.39398 77.8648 5.39398H91.6154C93.2799 5.39398 94.6339 6.74792 94.6339 8.41243C94.6339 10.0769 93.2799 11.4309 91.6154 11.4309H82.2247C80.743 11.4309 79.5417 12.6322 79.5417 14.1139C79.5417 15.7784 78.1877 17.1324 76.5232 17.1324H72.7334H62.7725C61.108 17.1324 59.7541 15.7784 59.7541 14.1139C59.7541 12.4494 61.108 11.0955 62.7725 11.0955ZM30.1288 83.2027H25.098V69.452H30.1288V83.2027ZM78.0881 83.2027H60.3128V60.3967H78.0881V83.2027ZM46.4803 43.963H9.02481L27.7529 23.7622L46.4803 43.963ZM66.6851 22.4985H71.5478H72.3866V28.5354H66.6851V22.4985ZM61.319 22.4985V31.2184C61.319 32.7002 62.632 33.9015 64.1137 33.9015H75.1814C76.6631 33.9015 77.7527 32.7002 77.7527 31.2184V29.4319L91.103 43.963H53.798L33.8991 22.4985H61.319ZM11.0116 49.3291H44.2145V83.2027H35.4945V66.769C35.4945 65.2873 34.4049 64.0859 32.9232 64.0859H22.5263C21.0446 64.0859 19.7316 65.2873 19.7316 66.769V83.2027H11.0116V49.3291ZM89.1557 83.2027H83.4542V57.7137C83.4542 56.2319 82.3646 55.0306 80.8829 55.0306H57.7415C56.2597 55.0306 54.9467 56.2319 54.9467 57.7137V83.2027H49.5806V49.3291H89.1557V83.2027Z" fill="#A8A8A8"/>
<path d="M19.0608 60.5644C20.5426 60.5644 21.7439 59.3631 21.7439 57.8813C21.7439 56.3995 20.5426 55.1982 19.0608 55.1982C17.579 55.1982 16.3777 56.3995 16.3777 57.8813C16.3777 59.3631 17.579 60.5644 19.0608 60.5644Z" fill="#A8A8A8"/>
<path d="M36.1656 60.5644C37.6474 60.5644 38.8487 59.3631 38.8487 57.8813C38.8487 56.3995 37.6474 55.1982 36.1656 55.1982C34.6838 55.1982 33.4826 56.3995 33.4826 57.8813C33.4826 59.3631 34.6838 60.5644 36.1656 60.5644Z" fill="#A8A8A8"/>
</svg>
