<svg width="48" height="49" viewBox="0 0 48 49" fill="none" xmlns="http://www.w3.org/2000/svg">
<path d="M19.129 25.1807C19.129 29.3974 15.1957 33.0279 10.0645 33.0279C4.93331 33.0279 1 29.3974 1 25.1807C1 20.964 4.93331 17.3335 10.0645 17.3335C15.1957 17.3335 19.129 20.964 19.129 25.1807Z" fill="#13C1DD" stroke="#282828" stroke-width="2"/>
<path d="M47 8.84722C47 13.0639 43.0667 16.6944 37.9355 16.6944C32.8043 16.6944 28.871 13.0639 28.871 8.84722C28.871 4.63055 32.8043 1 37.9355 1C43.0667 1 47 4.63055 47 8.84722Z" fill="#13C1DD" stroke="#282828" stroke-width="2"/>
<path d="M47 40.1529C47 44.3696 43.0667 48.0001 37.9355 48.0001C32.8043 48.0001 28.871 44.3696 28.871 40.1529C28.871 35.9362 32.8043 32.3057 37.9355 32.3057C43.0667 32.3057 47 35.9362 47 40.1529Z" fill="#13C1DD" stroke="#282828" stroke-width="2"/>
<line y1="-0.5" x2="17.1296" y2="-0.5" transform="matrix(0.852058 0.523448 -0.622314 0.782768 15.4839 30.9653)" stroke="#282828"/>
<line y1="-0.5" x2="17.9538" y2="-0.5" transform="matrix(-0.87087 0.491513 -0.589816 -0.807538 30.9086 11.2385)" stroke="#282828"/>
<line y1="-0.5" x2="26.8116" y2="-0.5" transform="matrix(0.852058 0.523448 -0.622314 0.782768 8.37573 25.0916)" stroke="#13C1DD"/>
<line y1="-0.5" x2="26.9306" y2="-0.5" transform="matrix(-0.87087 0.491513 -0.589816 -0.807538 33.048 11.6484)" stroke="#13C1DD"/>
<line x1="38.9839" y1="32.8938" x2="38.9839" y2="14.9271" stroke="#282828"/>
<path d="M37.1613 34.7083L37.1613 13.611" stroke="#13C1DD"/>
</svg>
